<svg xmlns="http://www.w3.org/2000/svg" xmlns:xlink="http://www.w3.org/1999/xlink" viewBox="0 0 65 62" fill="#fff" fill-rule="evenodd" stroke="#000" stroke-linecap="round" stroke-linejoin="round"><use xlink:href="#G" x=".5" y=".5"/><defs><linearGradient x1="-82.66%" y1="-92.82%" x2="103.77%" y2="106.04%" id="A"><stop stop-color="#f9a03c" offset="0%"/><stop stop-color="#f7974e" offset="100%"/></linearGradient><linearGradient x1="-258.92%" y1="-249.06%" x2="97.62%" y2="98.77%" id="B"><stop stop-color="#f9a03c" offset="0%"/><stop stop-color="#f7974e" offset="100%"/></linearGradient><linearGradient x1="-223.16%" y1="-261.97%" x2="94.03%" y2="101.69%" id="C"><stop stop-color="#f9a03c" offset="0%"/><stop stop-color="#f7974e" offset="100%"/></linearGradient><linearGradient x1="11.34%" y1="-1.82%" x2="82.50%" y2="92.11%" id="D"><stop stop-color="#f26d58" offset="0%"/><stop stop-color="#f9a03c" offset="100%"/></linearGradient><linearGradient x1="15.84%" y1="3.86%" x2="120.13%" y2="72.38%" id="E"><stop stop-color="#b84e51" offset="0%"/><stop stop-color="#f68e48" offset="100%"/></linearGradient><linearGradient x1="46.98%" y1="23.48%" x2="51.88%" y2="147.40%" id="F"><stop stop-color="#f9a03c" offset="0%"/><stop stop-color="#f7974e" offset="100%"/></linearGradient></defs><symbol id="G" overflow="visible"><g stroke="none" fill-rule="nonzero"><path d="M63.9 43.92l.065-.843c.02-.335-20.147-19.47-20.147-19.47h-.48S63.78 45.17 63.903 43.92z" fill="url(#A)"/><path d="M20.875 37.28l-.08.176-.088.184c-.643 1.34 9 10.767 9.775 9.622l.106-.155.117-.175c.62-.942-9.555-10.26-9.83-9.65z" fill="url(#B)"/><path d="M34.5 50.537c-.025.06-.22.388-.4.56-.03.06 9.413 9.425 9.413 9.425h.85c.001 0-8.864-9.59-9.865-9.986z" fill="url(#C)"/><path d="M63.98 42.906c-.442 9.8-8.54 17.618-18.436 17.618h-1.338l-9.882-9.735c.813-1.146 1.57-2.334 2.24-3.572h8.978a5.16 5.16 0 0 0 5.15-5.15 5.16 5.16 0 0 0-5.15-5.15H40.23c.405-2.14.626-4.346.626-6.604a35.33 35.33 0 0 0-.645-6.704h3.3l20.407 20.1c.024-.27.044-.54.058-.81zM5.37 0H0v13.308h5.37c9.376 0 17.006 7.627 17.006 17.004.002 2.47-.538 4.908-1.58 7.146l9.794 9.653a30.13 30.13 0 0 0 5.096-16.797C35.684 13.598 22.084 0 5.37 0z" fill="url(#D)"/><path d="M45.544 0h-21.74a35.73 35.73 0 0 1 12.702 13.308h9.037a5.16 5.16 0 0 1 5.15 5.151c0 2.84-2.31 5.15-5.15 5.15h-2.03l20.407 20.1.078-1.652c0-4.486-1.6-8.602-4.283-11.805 2.673-3.202 4.283-7.317 4.283-11.803C64 8.28 55.722 0 45.544 0z" fill="url(#E)"/><path d="M44.206 60.524H23.96c4.075-2.517 7.598-5.84 10.364-9.735zM30.588 47.108l-9.793-9.653c-2.706 5.814-8.6 9.86-15.426 9.86H0V60.62h5.37c10.503 0 19.78-5.374 25.22-13.514z" fill="url(#F)"/></g></symbol></svg>