<svg xmlns="http://www.w3.org/2000/svg" xmlns:xlink="http://www.w3.org/1999/xlink" viewBox="0 0 112.067 36.067" fill="#fff" fill-rule="evenodd" stroke="#000" stroke-linecap="round" stroke-linejoin="round"><use xlink:href="#A" x=".533" y=".533"/><symbol id="A" overflow="visible"><g stroke="none" fill="#e10098" fill-rule="nonzero"><path d="M42.479 10.035q-.853 0-1.557.227-.683.209-1.197.704-.494.475-.798 1.235-.285.759-.323 1.813-.06 1.71 0 3.42.038 1.063.323 1.813.304.76.798 1.254.512.475 1.197.704.704.209 1.557.209.838 0 1.557-.227.719-.247 1.235-.719.533-.494.838-1.255.304-.76.304-1.786v-.969h-3.321q-.418 0-.418-.427v-.267q0-.427.418-.427h4.053q.427 0 .427.427v1.672q0 1.141-.341 2.091-.341.931-1.007 1.617-.645.683-1.617 1.064-.96.36-2.165.36-1.235 0-2.165-.36-.931-.38-1.577-1.045-.627-.665-.968-1.576-.323-.931-.361-2.052-.038-.853-.038-1.805 0-.96.038-1.805.038-1.12.38-2.033.341-.931.968-1.596.645-.665 1.577-1.026.931-.38 2.146-.38 1.312 0 2.242.399.931.399 1.52.96.589.552.875 1.159.285.608.304 1.007.019.171-.107.285-.114.107-.304.107h-.418q-.171 0-.247-.075-.075-.107-.151-.304-.152-.427-.427-.853-.267-.427-.719-.76-.455-.341-1.083-.551-.627-.209-1.493-.209zm8.969 3.779q.683-1.312 2.584-1.312h.704q.418 0 .418.418v.267q0 .418-.418.418h-.817q-1.141 0-1.805.665-.665.665-.665 1.805v5.888q0 .19-.133.304-.114.114-.304.114h-.304q-.418 0-.418-.418v-9.024q0-.19.114-.304.114-.133.304-.133h.304q.19 0 .304.133.133.114.133.304v.875zm11.734 8.572q-.418 0-.418-.418v-.893q-.171.267-.456.533-.267.267-.665.475-.399.209-.96.341-.552.152-1.28.152-.683 0-1.312-.209-.608-.227-1.083-.608-.455-.38-.74-.893-.267-.512-.267-1.12 0-.645.267-1.159.285-.512.779-.893.494-.399 1.178-.645.704-.267 1.539-.38l3.002-.418v-.665q0-1.026-.627-1.596-.608-.57-1.956-.57-1.063 0-1.653.418-.57.399-.719.875-.075.227-.19.323-.107.075-.267.075h-.267q-.171 0-.304-.114-.114-.133-.114-.304 0-.267.19-.665.19-.399.608-.779.427-.38 1.102-.645.665-.285 1.617-.285 1.12 0 1.843.304.74.304 1.16.798.418.475.57 1.063.171.589.171 1.159v6.326q0 .418-.418.418h-.323zm-3.59-.912q.645 0 1.216-.209.589-.227 1.026-.665.427-.427.683-1.102.248-.665.248-1.557v-.645l-2.45.341q-3.153.427-3.153 2.014 0 .475.209.817.227.341.57.57.341.227.779.341.427.107.875.107zm11.687 1.102q-1.197 0-1.956-.427-.76-.427-1.235-1.064v4.501q0 .418-.418.418h-.323q-.418 0-.418-.418V12.921q0-.418.418-.418h.323q.418 0 .418.418v.893q.475-.645 1.235-1.063.76-.427 1.956-.427 1.102 0 1.861.399.779.38 1.254 1.026.475.627.683 1.444.227.798.267 1.634.019.285.019.627 0 .341-.019.627-.038.838-.267 1.653-.209.798-.683 1.444-.475.627-1.254 1.026-.76.38-1.861.38zm-3.192-5.814q-.019.285-.019.74 0 .455.019.74.019.57.19 1.16.19.57.57 1.026.38.456.96.759.57.285 1.367.285.838 0 1.387-.285.57-.285.912-.759.361-.494.512-1.12.171-.645.209-1.33.019-.533 0-1.064-.038-.683-.209-1.312-.151-.627-.512-1.102-.341-.494-.912-.779-.551-.304-1.387-.304-.817 0-1.387.304-.57.304-.96.798-.361.475-.551 1.063-.171.589-.19 1.178zm11.022-2.948q.512-.665 1.235-1.083.719-.418 1.956-.418.969 0 1.691.323.719.323 1.197.893.494.57.74 1.349.247.779.247 1.691v5.395q0 .418-.418.418h-.32q-.418 0-.418-.418v-5.301q0-1.52-.74-2.374-.74-.875-2.165-.875-1.367 0-2.185.853-.817.853-.817 2.397v5.301q0 .418-.418.418h-.323q-.418 0-.418-.418V9.31q0-.418.418-.418h.323q.418 0 .418.418v4.501zm14.827-4.92q1.102 0 2.014.323.912.323 1.557.988.665.645 1.026 1.634.38.969.418 2.299.038.853.038 1.596 0 .74-.038 1.596-.107 2.717-1.387 3.989l1.216 1.71q.019.038.038.075.019.038.019.133 0 .152-.114.267-.114.114-.267.114h-.429q-.209 0-.361-.171-.151-.151-.247-.267l-.838-1.159q-1.141.552-2.66.552-2.375 0-3.666-1.273-1.273-1.273-1.349-3.97-.038-.853-.038-1.596 0-.74.038-1.596.038-1.33.399-2.299.38-.988 1.026-1.634.665-.665 1.557-.988.912-.323 2.033-.323zm0 1.141q-.798 0-1.493.247-.683.227-1.197.74-.512.512-.817 1.312-.285.798-.323 1.899-.019.427-.038.798 0 .361 0 .704 0 .341 0 .719.019.361.038.779.038 1.12.323 1.92.304.779.798 1.28.512.512 1.197.76.683.227 1.498.227.817 0 1.498-.227.683-.247 1.178-.76.512-.512.798-1.28.304-.798.341-1.92.019-.418.019-.779 0-.38 0-.719 0-.341 0-.704 0-.361-.019-.798-.038-1.102-.341-1.899-.285-.798-.798-1.312-.512-.512-1.197-.74-.683-.247-1.493-.247zm9.273 11.207h6.554q.427 0 .427.427v.285q0 .418-.427.418h-7.332q-.418 0-.418-.418V9.502q0-.418.418-.418h.361q.418 0 .418.418v11.74zM2.823 26.59l-1.28-.74 14.27-24.715 1.28.74z"/><path d="M1.252 23.877h28.54v1.48H1.252z"/><path d="M16.093 32.95L1.817 24.708l.74-1.28 14.275 8.24zm12.401-21.483L14.219 3.226l.74-1.28 14.276 8.242z"/><path d="M2.56 11.463l-.74-1.28L16.107 1.95l.74 1.28z"/><path d="M28.231 26.59L13.959 1.875l1.28-.74 14.27 24.715zM2.384 9.201h1.477v16.485H2.384zm24.807 0h1.48v16.485H27.2z"/><path d="M15.84 32.324l-.646-1.12 12.416-7.168.646 1.12z"/><path d="M30.631 26.167c-.86 1.487-2.762 1.998-4.251 1.14s-1.998-2.762-1.14-4.251 2.762-1.998 4.251-1.14c.717.411 1.24 1.09 1.454 1.888s.102 1.648-.313 2.363M5.807 11.831c-.86 1.487-2.762 1.998-4.251 1.14S-.441 10.209.416 8.72s2.762-1.998 4.251-1.14a3.12 3.12 0 0 1 1.141 4.251M.427 26.167c-.855-1.488-.348-3.386 1.141-4.251 1.488-.855 3.386-.348 4.251 1.141.855 1.488.348 3.386-1.141 4.251-1.499.855-3.397.349-4.251-1.141m24.825-14.336c-.855-1.488-.348-3.386 1.141-4.251 1.488-.856 3.386-.348 4.251 1.141.855 1.488.348 3.386-1.141 4.251-1.489.857-3.391.347-4.251-1.14m-9.725 23.062c-1.719 0-3.109-1.39-3.109-3.109a3.11 3.11 0 0 1 3.109-3.109 3.11 3.11 0 0 1 3.109 3.109c-.003 1.716-1.393 3.107-3.109 3.109m0-28.675c-1.719 0-3.109-1.39-3.109-3.109A3.11 3.11 0 0 1 15.527 0a3.11 3.11 0 0 1 3.109 3.109c.001.825-.326 1.617-.909 2.2s-1.375.911-2.2.909"/></g></symbol></svg>