<svg xmlns="http://www.w3.org/2000/svg" viewBox="0 0 64 64" fill="#fff" fill-rule="evenodd" stroke="#000" stroke-linecap="round" stroke-linejoin="round"><path d="M42.88 42.106c2.177-.225 3.83-2.102 3.754-4.355a4.22 4.22 0 0 0-4.204-4.054h-.15c-2.328.075-4.13 2.027-4.054 4.355.075 1.126.525 2.102 1.2 2.778-2.553 5.03-6.457 8.7-12.313 11.788-3.98 2.102-8.11 2.853-12.238 2.328-3.38-.45-6.006-1.952-7.658-4.43-2.402-3.68-2.628-7.658-.6-11.638 1.427-2.853 3.68-4.956 5.105-6.007-.3-.976-.75-2.628-.976-3.83C-.14 36.925.986 47.587 4.3 52.618c2.478 3.754 7.508 6.082 13.064 6.082 1.502 0 3.003-.15 4.505-.525 9.6-1.877 16.893-7.584 21.022-16.068zm13.214-9.3c-5.706-6.682-14.115-10.36-23.725-10.36h-1.2c-.676-1.35-2.102-2.253-3.68-2.253h-.15c-2.327.075-4.13 2.027-4.054 4.355a4.22 4.22 0 0 0 4.204 4.054h.15a4.23 4.23 0 0 0 3.679-2.553h1.35c5.706 0 11.112 1.652 15.992 4.88 3.754 2.478 6.457 5.706 7.958 9.61 1.276 3.154 1.2 6.232-.15 8.86-2.102 3.98-5.63 6.157-10.286 6.157-3.003 0-5.856-.9-7.358-1.577-.826.75-2.328 1.952-3.38 2.703C38.676 58.174 41.98 59 45.133 59c7.208 0 12.538-3.98 14.566-7.96 2.177-4.355 2.027-11.863-3.604-18.245zm-38.14 10.586a4.22 4.22 0 0 0 4.204 4.054h.15c2.328-.075 4.13-2.027 4.054-4.355a4.22 4.22 0 0 0-4.204-4.054h-.15c-.15 0-.376 0-.525.075-3.078-5.106-4.355-10.66-3.904-16.668.3-4.505 1.802-8.41 4.43-11.638 2.177-2.778 6.382-4.13 9.235-4.204 7.958-.15 11.337 9.76 11.562 13.74.976.225 2.628.75 3.754 1.126-.9-12.163-8.41-18.47-15.617-18.47-6.757 0-12.99 4.88-15.467 12.088-3.454 9.61-1.2 18.846 3.003 26.13-.375.525-.6 1.35-.525 2.177z" fill="#764abc" fill-rule="nonzero" stroke="none"/></svg>